<svg width="109" height="20" viewBox="0 0 109 20" fill="none" xmlns="http://www.w3.org/2000/svg">
<path d="M101.208 4.57324H102.807V9.0626H102.88C103.046 8.60291 103.315 8.2508 103.687 8.00628C104.069 7.75198 104.514 7.62483 105.022 7.62483C105.99 7.62483 106.739 7.97694 107.267 8.68115C107.795 9.37559 108.059 10.3537 108.059 11.6154C108.059 12.8771 107.795 13.8601 107.267 14.5643C106.739 15.2587 105.99 15.6059 105.022 15.6059C104.514 15.6059 104.069 15.4788 103.687 15.2245C103.315 14.9702 103.046 14.6181 102.88 14.1681H102.807V15.4299H101.208V4.57324ZM104.538 14.2268C105.095 14.2268 105.541 14.0508 105.873 13.6987C106.206 13.3368 106.372 12.8624 106.372 12.2756V10.9552C106.372 10.3683 106.206 9.89886 105.873 9.54675C105.541 9.18486 105.095 9.00392 104.538 9.00392C104.049 9.00392 103.638 9.12618 103.306 9.3707C102.973 9.60543 102.807 9.91842 102.807 10.3096V12.9211C102.807 13.3123 102.973 13.6302 103.306 13.8747C103.638 14.1095 104.049 14.2268 104.538 14.2268Z" fill="#FAFAFA"/>
<path d="M99.3323 15.4299C98.9117 15.4299 98.5889 15.3125 98.364 15.0778C98.139 14.8333 98.0021 14.5252 97.9532 14.1535H97.8798C97.7331 14.6327 97.4641 14.9946 97.0729 15.2392C96.6817 15.4837 96.2073 15.6059 95.6498 15.6059C94.8576 15.6059 94.2463 15.4005 93.8159 14.9897C93.3953 14.579 93.1851 14.0263 93.1851 13.3319C93.1851 12.569 93.4589 11.9968 94.0066 11.6154C94.5641 11.2339 95.3759 11.0432 96.442 11.0432H97.8211V10.3977C97.8211 9.92821 97.694 9.56632 97.4397 9.31202C97.1854 9.05773 96.7893 8.93058 96.2513 8.93058C95.8014 8.93058 95.4346 9.02838 95.151 9.224C94.8673 9.41961 94.6277 9.66902 94.4321 9.97223L93.4785 9.10663C93.7328 8.67628 94.0898 8.32417 94.5495 8.05031C95.0092 7.76667 95.6107 7.62485 96.354 7.62485C97.3419 7.62485 98.0999 7.85469 98.628 8.31439C99.1562 8.77408 99.4203 9.43428 99.4203 10.295V14.1241H100.227V15.4299H99.3323ZM96.1046 14.3882C96.6034 14.3882 97.0142 14.2806 97.337 14.0655C97.6597 13.8405 97.8211 13.5422 97.8211 13.1705V12.0702H96.4714C95.3662 12.0702 94.8136 12.4125 94.8136 13.0972V13.3613C94.8136 13.7036 94.926 13.9628 95.151 14.1388C95.3857 14.3051 95.7036 14.3882 96.1046 14.3882Z" fill="#FAFAFA"/>
<path d="M86.9106 15.4299V5.18942H88.5685V13.9627H92.7351V15.4299H86.9106Z" fill="#FAFAFA"/>
<path d="M75.9894 4.57324H77.5885V9.0626H77.6619C77.8282 8.65181 78.0776 8.30949 78.4101 8.03562C78.7524 7.76176 79.217 7.62483 79.8039 7.62483C80.5863 7.62483 81.1927 7.88402 81.6231 8.4024C82.0632 8.911 82.2833 9.63967 82.2833 10.5884V15.4299H80.6841V10.7791C80.6841 9.59565 80.2049 9.00392 79.2464 9.00392C79.041 9.00392 78.8356 9.03326 78.6302 9.09194C78.4346 9.14085 78.2585 9.21909 78.102 9.32668C77.9455 9.43427 77.8184 9.5712 77.7206 9.73747C77.6325 9.90375 77.5885 10.0945 77.5885 10.3096V15.4299H75.9894V4.57324Z" fill="#FAFAFA"/>
<path d="M72.0462 15.6059C71.4985 15.6059 71.0095 15.513 70.5791 15.3272C70.1488 15.1413 69.7869 14.8773 69.4935 14.5349C69.2 14.1828 68.9751 13.7623 68.8186 13.2732C68.6621 12.7744 68.5839 12.2218 68.5839 11.6154C68.5839 11.009 68.6621 10.4613 68.8186 9.97223C68.9751 9.47341 69.2 9.05284 69.4935 8.71051C69.7869 8.3584 70.1488 8.08943 70.5791 7.9036C71.0095 7.71776 71.4985 7.62485 72.0462 7.62485C72.8091 7.62485 73.4351 7.79601 73.9241 8.13834C74.4132 8.48066 74.7702 8.93547 74.9951 9.50275L73.6747 10.1189C73.5672 9.76683 73.3764 9.48808 73.1026 9.28268C72.8385 9.06751 72.4864 8.95992 72.0462 8.95992C71.4594 8.95992 71.0144 9.14575 70.7112 9.51742C70.4178 9.87931 70.271 10.3537 70.271 10.9405V12.3049C70.271 12.8918 70.4178 13.371 70.7112 13.7427C71.0144 14.1046 71.4594 14.2855 72.0462 14.2855C72.5157 14.2855 72.8874 14.1731 73.1612 13.9481C73.4449 13.7134 73.6698 13.4053 73.8361 13.0238L75.0538 13.6693C74.7995 14.2953 74.4181 14.7746 73.9095 15.1071C73.4009 15.4397 72.7798 15.6059 72.0462 15.6059Z" fill="#FAFAFA"/>
<path d="M61.1738 15.4299V7.8009H62.773V9.06262H62.8463C63.0126 8.65183 63.262 8.3095 63.5946 8.03564C63.9369 7.76178 64.4015 7.62485 64.9883 7.62485C65.7708 7.62485 66.3772 7.88404 66.8075 8.40242C67.2477 8.91101 67.4677 9.63968 67.4677 10.5884V15.4299H65.8686V10.7938C65.8686 9.60056 65.3893 9.00393 64.4308 9.00393C64.2254 9.00393 64.02 9.03327 63.8146 9.09196C63.619 9.14086 63.443 9.21911 63.2865 9.3267C63.13 9.43428 63.0028 9.57122 62.905 9.73749C62.817 9.90376 62.773 10.0994 62.773 10.3243V15.4299H61.1738Z" fill="#FAFAFA"/>
<path d="M57.8717 14.1681H57.813C57.7445 14.354 57.6516 14.5349 57.5343 14.711C57.4267 14.887 57.2849 15.0435 57.1088 15.1804C56.9425 15.3076 56.7371 15.4103 56.4926 15.4885C56.2579 15.5668 55.984 15.6059 55.671 15.6059C54.8788 15.6059 54.2626 15.3516 53.8225 14.843C53.3921 14.3344 53.1769 13.6057 53.1769 12.657V7.80087H54.7761V12.4516C54.7761 13.6351 55.2651 14.2268 56.2432 14.2268C56.4486 14.2268 56.6491 14.2024 56.8447 14.1535C57.0403 14.0948 57.2115 14.0116 57.3582 13.9041C57.5147 13.7965 57.637 13.6595 57.725 13.4933C57.8228 13.327 57.8717 13.1314 57.8717 12.9064V7.80087H59.4708V15.4299H57.8717V14.1681Z" fill="#FAFAFA"/>
<path d="M47.9274 15.4299V7.80087H49.5266V9.26798H49.5999C49.7075 8.87675 49.9325 8.53443 50.2748 8.24101C50.6171 7.94758 51.0915 7.80087 51.6979 7.80087H52.1234V9.34134H51.4925C50.8568 9.34134 50.3677 9.44404 50.0254 9.64943C49.6929 9.85483 49.5266 10.158 49.5266 10.559V15.4299H47.9274Z" fill="#FAFAFA"/>
<path d="M43.1771 15.6059C41.8371 15.6059 40.7857 15.156 40.0228 14.2562C39.2599 13.3466 38.8784 12.031 38.8784 10.3096C38.8784 9.44893 38.9762 8.69093 39.1718 8.03562C39.3675 7.38031 39.6511 6.82769 40.0228 6.37778C40.3944 5.92787 40.8443 5.59043 41.3725 5.36547C41.9104 5.13074 42.512 5.01337 43.1771 5.01337C44.0671 5.01337 44.8104 5.20898 45.4071 5.60021C46.0135 5.99144 46.4878 6.5685 46.8302 7.3314L45.4364 8.0943C45.2604 7.60526 44.9865 7.21892 44.6148 6.93528C44.2529 6.64186 43.7737 6.49515 43.1771 6.49515C42.3848 6.49515 41.7637 6.76412 41.3138 7.30206C40.8639 7.84 40.639 8.58334 40.639 9.53207V11.0872C40.639 12.0359 40.8639 12.7793 41.3138 13.3172C41.7637 13.8552 42.3848 14.1241 43.1771 14.1241C43.7932 14.1241 44.2921 13.9676 44.6735 13.6547C45.0647 13.3319 45.3533 12.9211 45.5391 12.4223L46.8742 13.2292C46.5318 13.9725 46.0526 14.5545 45.4364 14.9751C44.8202 15.3956 44.0671 15.6059 43.1771 15.6059Z" fill="#FAFAFA"/>
<path d="M13.4677 12.4562C13.4677 12.6339 13.4098 12.8274 13.2521 12.985L6.23452 19.9973H0.986642L10.9563 9.99948L0.985779 -0.000518669L6.21914 -0.000549316L13.2554 7.04488C13.4108 7.20026 13.4677 7.39729 13.4677 7.5661V12.4562Z" fill="#FAFAFA"/>
<path d="M24.3884 16.2264C24.3884 16.4185 24.312 16.6027 24.1761 16.7385L20.9108 20.0001H14.35L14.35 0.000135144L20.9178 0.000134893L24.1761 3.24901C24.312 3.38475 24.3884 3.56894 24.3884 3.76101L24.3884 16.2264Z" fill="#FAFAFA"/>
<path d="M26.1974 20L29.4273 16.7694C29.5632 16.6337 29.6395 16.4496 29.6395 16.2576V3.76367C29.6395 3.57169 29.5632 3.38758 29.4274 3.25186L26.1974 8.30678e-05H25.2714L25.2714 20H26.1974Z" fill="#FAFAFA"/>
</svg>
