<svg width="29" height="20" viewBox="0 0 29 20" fill="none" xmlns="http://www.w3.org/2000/svg">
<path d="M13.4677 12.4562C13.4677 12.6339 13.4098 12.8274 13.2521 12.985L6.23452 19.9973H0.986642L10.9563 9.99948L0.985779 -0.000518669L6.21914 -0.000549316L13.2554 7.04488C13.4108 7.20026 13.4677 7.39729 13.4677 7.5661V12.4562Z" fill="#FAFAFA"/>
<path d="M24.3884 16.2264C24.3884 16.4185 24.312 16.6027 24.1761 16.7385L20.9108 20.0001H14.35L14.35 0.000135144L20.9178 0.000134893L24.1761 3.24901C24.312 3.38475 24.3884 3.56894 24.3884 3.76101L24.3884 16.2264Z" fill="#FAFAFA"/>
<path d="M26.1974 20L29.4273 16.7694C29.5632 16.6337 29.6395 16.4496 29.6395 16.2576V3.76367C29.6395 3.57169 29.5632 3.38758 29.4274 3.25186L26.1974 8.30678e-05H25.2714L25.2714 20H26.1974Z" fill="#FAFAFA"/>
</svg>
