<svg width="266" height="186" viewBox="0 0 266 186" fill="none" xmlns="http://www.w3.org/2000/svg">
<path d="M115.443 115.731C115.443 117.382 114.907 119.18 113.449 120.644L48.5446 185.793H0.00798357L92.2153 92.9065L0 0.000284738L48.4023 0L113.479 65.4564C114.916 66.9001 115.443 68.7305 115.443 70.2989V115.731Z" fill="#F8F7EA"/>
<path d="M216.446 150.759C216.446 152.543 215.74 154.255 214.483 155.516L184.283 185.818H123.603L123.603 0.00635906L184.347 0.00635673L214.483 30.1904C215.74 31.4515 216.446 33.1628 216.446 34.9473L216.446 150.759Z" fill="#F8F7EA"/>
<path d="M233.178 185.818L263.051 155.804C264.307 154.543 265.012 152.832 265.012 151.048V34.9719C265.012 33.1884 264.307 31.4778 263.051 30.2169L233.178 0.00587524H224.613L224.613 185.818H233.178Z" fill="#F8F7EA"/>
</svg>
